<svg width="102" height="24" viewBox="0 0 102 24" fill="none" xmlns="http://www.w3.org/2000/svg">
<path d="M20.25 23C21.1612 23 21.9 22.2612 21.9 21.35C21.9 20.4388 21.1612 19.7 20.25 19.7C19.3388 19.7 18.6 20.4388 18.6 21.35C18.6 22.2612 19.3388 23 20.25 23Z" stroke="white" stroke-width="2" stroke-linecap="round" stroke-linejoin="round"/>
<path d="M9.25 23C10.1612 23 10.9 22.2612 10.9 21.35C10.9 20.4388 10.1612 19.7 9.25 19.7C8.33873 19.7 7.6 20.4388 7.6 21.35C7.6 22.2612 8.33873 23 9.25 23Z" stroke="white" stroke-width="2" stroke-linecap="round" stroke-linejoin="round"/>
<path d="M4.3 3.2H23L20.8 15.3H6.5L4.3 3.2ZM4.3 3.2C4.11666 2.46666 3.2 1 1 1" stroke="white" stroke-width="2" stroke-linecap="round" stroke-linejoin="round"/>
<path d="M20.8 15.3H6.5H4.55384C2.5911 15.3 1.55 16.1593 1.55 17.5C1.55 18.8407 2.5911 19.7 4.55384 19.7H20.25" stroke="white" stroke-width="2" stroke-linecap="round" stroke-linejoin="round"/>
<path d="M41.904 18H39.6L39.36 13.504C39.2853 12.16 39.248 11.0187 39.248 10.08C39.248 9.57867 39.2533 9.216 39.264 8.992L37.392 16.816H35.168L33.168 8.976C33.2107 9.62667 33.232 10.3573 33.232 11.168C33.232 12.032 33.2107 12.8267 33.168 13.552L32.928 18H30.64L31.504 6.928H34.496L36.32 14.56L38.032 6.928H41.056L41.904 18ZM48.0349 18.016C47.6935 19.0933 47.1549 19.9253 46.4189 20.512C45.6935 21.0987 44.7069 21.4347 43.4589 21.52L43.2189 19.888C44.0295 19.7813 44.6215 19.5893 44.9949 19.312C45.3789 19.0347 45.6935 18.5973 45.9389 18H45.1549L42.5149 9.52H44.9309L46.6269 16.528L48.4189 9.52H50.7709L48.0349 18.016ZM62.6384 18H60.3344L60.0944 13.504C60.0197 12.16 59.9824 11.0187 59.9824 10.08C59.9824 9.57867 59.9877 9.216 59.9984 8.992L58.1264 16.816H55.9024L53.9024 8.976C53.945 9.62667 53.9664 10.3573 53.9664 11.168C53.9664 12.032 53.945 12.8267 53.9024 13.552L53.6624 18H51.3744L52.2384 6.928H55.2304L57.0544 14.56L58.7664 6.928H61.7904L62.6384 18ZM70.8813 15.648C70.8813 15.9787 70.9293 16.224 71.0253 16.384C71.1213 16.5333 71.2813 16.6453 71.5052 16.72L71.0253 18.224C70.5239 18.1813 70.1133 18.064 69.7933 17.872C69.4839 17.68 69.2439 17.3813 69.0733 16.976C68.5186 17.8293 67.6706 18.256 66.5293 18.256C65.6866 18.256 65.0146 18.016 64.5133 17.536C64.0226 17.0453 63.7773 16.4107 63.7773 15.632C63.7773 14.704 64.1133 13.9947 64.7853 13.504C65.4573 13.0133 66.4226 12.768 67.6813 12.768H68.6573V12.352C68.6573 11.8293 68.5399 11.4667 68.3053 11.264C68.0706 11.0613 67.6813 10.96 67.1373 10.96C66.5399 10.96 65.7933 11.1093 64.8973 11.408L64.3853 9.888C65.4413 9.472 66.4866 9.264 67.5213 9.264C68.6733 9.264 69.5213 9.51467 70.0653 10.016C70.6093 10.5067 70.8813 11.2427 70.8813 12.224V15.648ZM67.1533 16.624C67.7933 16.624 68.2946 16.3093 68.6573 15.68V14.064H67.9053C66.6786 14.064 66.0653 14.5227 66.0653 15.44C66.0653 15.8133 66.1559 16.1067 66.3373 16.32C66.5293 16.5227 66.8013 16.624 67.1533 16.624ZM77.5353 9.28C77.7913 9.28 78.0739 9.32267 78.3833 9.408L77.9993 11.6C77.7006 11.5253 77.4499 11.488 77.2473 11.488C76.7459 11.488 76.3566 11.664 76.0793 12.016C75.8019 12.368 75.5833 12.9013 75.4233 13.616V18H73.1513V9.52H75.1193L75.3273 11.168C75.5299 10.5707 75.8233 10.1067 76.2073 9.776C76.6019 9.44533 77.0446 9.28 77.5353 9.28ZM81.7826 5.888V18H79.5106V6.144L81.7826 5.888ZM86.9346 9.52L84.2306 13.248L87.1746 18H84.5986L81.8626 13.36L84.5826 9.52H86.9346ZM95.163 13.568C95.163 13.6747 95.147 13.968 95.115 14.448H89.819C89.8937 15.216 90.1017 15.76 90.443 16.08C90.7843 16.4 91.2483 16.56 91.835 16.56C92.1977 16.56 92.539 16.5013 92.859 16.384C93.179 16.2667 93.5257 16.08 93.899 15.824L94.843 17.104C93.8937 17.872 92.8217 18.256 91.627 18.256C90.2937 18.256 89.2697 17.856 88.555 17.056C87.8403 16.256 87.483 15.1733 87.483 13.808C87.483 12.944 87.6323 12.1707 87.931 11.488C88.2403 10.7947 88.683 10.2507 89.259 9.856C89.8457 9.46133 90.539 9.264 91.339 9.264C92.5443 9.264 93.483 9.64267 94.155 10.4C94.827 11.1573 95.163 12.2133 95.163 13.568ZM92.907 12.928C92.907 11.52 92.4003 10.816 91.387 10.816C90.9177 10.816 90.5497 10.992 90.283 11.344C90.027 11.6853 89.8723 12.2453 89.819 13.024H92.907V12.928ZM101.88 17.6C101.57 17.8133 101.218 17.9733 100.824 18.08C100.44 18.1973 100.056 18.256 99.6715 18.256C98.7968 18.2453 98.1355 17.9947 97.6875 17.504C97.2395 17.0133 97.0155 16.2933 97.0155 15.344V11.12H95.7515V9.52H97.0155V7.664L99.2875 7.392V9.52H101.24L101.016 11.12H99.2875V15.296C99.2875 15.7013 99.3568 15.9947 99.4955 16.176C99.6342 16.3573 99.8475 16.448 100.136 16.448C100.424 16.448 100.744 16.352 101.096 16.16L101.88 17.6Z" fill="white"/>
</svg>
